<!--?xml version="1.0" encoding="UTF-8" standalone="no"?-->


<svg xmlns="http://www.w3.org/2000/svg" width="498.853mm" height="269.889mm" viewBox="0 0 2828 1530" style="">
  <path id="Unnamed" fill="none" stroke="black" stroke-width="1" d="M -3.00,135.00
           C -3.00,135.00 561.00,318.00 561.00,318.00
             561.00,318.00 894.00,411.00 894.00,411.00
             894.00,411.00 1140.00,477.00 1140.00,477.00
             1140.00,477.00 1308.00,528.00 1308.00,528.00
             1308.00,528.00 1599.00,639.00 1599.00,639.00
             1599.00,639.00 1911.00,738.00 1911.00,738.00
             1911.00,738.00 2064.00,795.00 2064.00,795.00
             2064.00,795.00 2373.00,906.00 2373.00,906.00
             2373.00,906.00 2760.00,1050.00 2760.00,1050.00
             2760.00,1050.00 2826.00,1071.00 2826.00,1071.00M 2760.00,1035.00
           C 2760.00,1035.00 2667.00,1203.00 2667.00,1203.00
             2667.00,1203.00 2472.00,1446.00 2472.00,1446.00
             2472.00,1446.00 2433.00,1524.00 2433.00,1524.00M 2082.00,1518.00
           C 2082.00,1518.00 2202.00,1266.00 2202.00,1266.00
             2202.00,1266.00 2373.00,909.00 2373.00,909.00
             2373.00,909.00 2508.00,651.00 2508.00,651.00
             2508.00,651.00 2658.00,339.00 2658.00,339.00
             2658.00,339.00 2757.00,135.00 2757.00,135.00
             2757.00,135.00 2805.00,45.00 2805.00,45.00
             2805.00,45.00 2787.00,3.00 2787.00,3.00M 2043.00,1467.00
           C 2043.00,1467.00 2094.00,1491.00 2094.00,1491.00M 2034.00,1182.00
           C 2034.00,1182.00 2205.00,1266.00 2205.00,1266.00M 2826.00,174.00
           C 2826.00,174.00 2763.00,135.00 2763.00,135.00M 2682.00,297.00
           C 2682.00,297.00 2835.00,384.00 2835.00,384.00
             2835.00,384.00 2829.00,423.00 2829.00,423.00
             2829.00,423.00 2661.00,342.00 2661.00,342.00M 2679.00,297.00M 2028.00,789.00
           C 2028.00,789.00 1821.00,1530.00 1821.00,1530.00
             1821.00,1530.00 1653.00,1449.00 1653.00,1449.00
             1653.00,1449.00 1716.00,1305.00 1716.00,1305.00
             1716.00,1305.00 1770.00,1131.00 1770.00,1131.00
             1770.00,1131.00 1857.00,885.00 1857.00,885.00
             1857.00,885.00 1563.00,792.00 1563.00,792.00
             1563.00,792.00 1608.00,651.00 1608.00,651.00
             1608.00,651.00 1632.00,570.00 1632.00,570.00
             1632.00,570.00 1740.00,618.00 1740.00,618.00
             1740.00,618.00 1839.00,348.00 1839.00,348.00
             1839.00,348.00 1824.00,324.00 1824.00,324.00
             1824.00,324.00 1797.00,333.00 1797.00,333.00
             1797.00,333.00 1719.00,570.00 1719.00,570.00
             1719.00,570.00 1746.00,612.00 1746.00,612.00M 2658.00,342.00
           C 2658.00,342.00 2304.00,201.00 2304.00,201.00
             2304.00,201.00 2283.00,75.00 2283.00,75.00
             2283.00,75.00 2142.00,54.00 2142.00,54.00
             2142.00,54.00 1908.00,765.00 1908.00,765.00
             1908.00,765.00 1857.00,885.00 1857.00,885.00M 2262.00,198.00
           C 2262.00,198.00 2061.00,795.00 2061.00,795.00M 2307.00,0.00
           C 2307.00,0.00 2283.00,72.00 2283.00,72.00M 1347.00,1524.00
           C 1347.00,1524.00 1389.00,1341.00 1389.00,1341.00
             1389.00,1341.00 1479.00,1053.00 1479.00,1053.00
             1479.00,1053.00 1563.00,792.00 1563.00,792.00M 1650.00,1446.00
           C 1650.00,1446.00 1383.00,1344.00 1383.00,1344.00
             1383.00,1344.00 975.00,1272.00 975.00,1272.00
             975.00,1272.00 924.00,1503.00 924.00,1503.00
             924.00,1503.00 669.00,1482.00 669.00,1482.00
             669.00,1482.00 660.00,1527.00 660.00,1527.00M 1647.00,1521.00
           C 1647.00,1521.00 1653.00,1449.00 1653.00,1449.00M 1482.00,1053.00
           C 1482.00,1053.00 1185.00,984.00 1185.00,984.00
             1185.00,984.00 1047.00,942.00 1047.00,942.00
             1047.00,942.00 972.00,1281.00 972.00,1281.00
             972.00,1281.00 591.00,1281.00 591.00,1281.00
             591.00,1281.00 558.00,1371.00 558.00,1371.00
             558.00,1371.00 531.00,1521.00 531.00,1521.00M 561.00,1374.00
           C 561.00,1374.00 342.00,1398.00 342.00,1398.00
             342.00,1398.00 9.00,1353.00 9.00,1353.00
             9.00,1353.00 3.00,1503.00 3.00,1503.00
             3.00,1503.00 210.00,1533.00 210.00,1533.00M 678.00,0.00
           C 678.00,0.00 555.00,318.00 555.00,318.00
             555.00,318.00 444.00,654.00 444.00,654.00
             444.00,654.00 447.00,702.00 447.00,702.00
             447.00,702.00 444.00,840.00 444.00,840.00
             444.00,840.00 450.00,1158.00 450.00,1158.00
             450.00,1158.00 450.00,1260.00 450.00,1260.00
             450.00,1260.00 450.00,1299.00 450.00,1299.00
             450.00,1299.00 573.00,1341.00 573.00,1341.00M 1026.00,9.00
           C 1026.00,9.00 894.00,411.00 894.00,411.00
             894.00,411.00 750.00,867.00 750.00,867.00
             750.00,867.00 591.00,1281.00 591.00,1281.00M 1251.00,3.00
           C 1251.00,3.00 1140.00,477.00 1140.00,477.00
             1140.00,477.00 1047.00,945.00 1047.00,945.00
             1047.00,945.00 750.00,867.00 750.00,867.00M 1414.00,150.00
           C 1414.00,150.00 1308.00,531.00 1308.00,531.00
             1308.00,531.00 1185.00,987.00 1185.00,987.00M 774.00,789.00
           C 774.00,789.00 450.00,705.00 450.00,705.00M 300.00,804.00
           C 300.00,804.00 444.00,843.00 444.00,843.00M 174.00,1113.00
           C 174.00,1113.00 447.00,1161.00 447.00,1161.00M 180.00,384.00
           C 180.00,384.00 297.00,405.00 297.00,405.00
             297.00,405.00 324.00,438.00 324.00,438.00
             324.00,438.00 285.00,597.00 285.00,597.00
             285.00,597.00 210.00,564.00 210.00,564.00
             210.00,564.00 75.00,903.00 75.00,903.00
             75.00,903.00 6.00,1170.00 6.00,1170.00
             6.00,1170.00 450.00,1257.00 450.00,1257.00M 0.00,456.00
           C 0.00,456.00 213.00,567.00 213.00,567.00M 444.00,654.00
           C 444.00,654.00 279.00,597.00 279.00,597.00M 1446.00,1188.00
           C 1446.00,1188.00 1716.00,1305.00 1716.00,1305.00M 1479.00,1053.00
           C 1479.00,1053.00 1770.00,1134.00 1770.00,1134.00M 927.00,1506.00
           C 927.00,1506.00 1023.00,1509.00 1023.00,1509.00
             1023.00,1509.00 1056.00,1341.00 1056.00,1341.00M 1140.00,1527.00
           C 1140.00,1527.00 1023.00,1509.00 1023.00,1509.00M 2163.00,489.00
           C 2163.00,489.00 2511.00,645.00 2511.00,645.00
             2511.00,645.00 2829.00,834.00 2829.00,834.00M 2826.00,897.00
           C 2826.00,897.00 2754.00,1056.00 2754.00,1056.00M 1941.00,861.00
           C 1941.00,861.00 1878.00,837.00 1878.00,837.00M 0.00,876.00
           C 0.00,876.00 78.00,906.00 78.00,906.00M 2166.00,0.00
           C 2166.00,0.00 2142.00,60.00 2142.00,60.00" class="RMOiKPnL_0"></path>
<style data-made-with="vivus-instant">.RMOiKPnL_0{stroke-dasharray:25246 25248;stroke-dashoffset:25247;animation:RMOiKPnL_draw_0 54200ms linear 0ms infinite,RMOiKPnL_fade 54200ms linear 0ms infinite;}@keyframes RMOiKPnL_draw{100%{stroke-dashoffset:0;}}@keyframes RMOiKPnL_fade{0%{stroke-opacity:1;}99.2619926199262%{stroke-opacity:1;}100%{stroke-opacity:0;}}@keyframes RMOiKPnL_draw_0{1.4760147601476015%{stroke-dashoffset: 25247}86.34686346863468%{ stroke-dashoffset: 0;}100%{ stroke-dashoffset: 0;}}</style></svg>
