<svg width="2828" height="1530" xmlns="http://www.w3.org/2000/svg">

 <style>.RMOiKPnL_0{stroke-dasharray:25246 25248;stroke-dashoffset:25247;animation:RMOiKPnL_draw_0 54200ms linear 0ms infinite,RMOiKPnL_fade 54200ms linear 0ms infinite;}@keyframes RMOiKPnL_draw{100%{stroke-dashoffset:0;}}@keyframes RMOiKPnL_fade{0%{stroke-opacity:1;}99.2619926199262%{stroke-opacity:1;}100%{stroke-opacity:0;}}@keyframes RMOiKPnL_draw_0{1.4760147601476015%{stroke-dashoffset: 25247}86.34686346863468%{ stroke-dashoffset: 0;}100%{ stroke-dashoffset: 0;}}</style>
 <g>
  <title>background</title>
  <rect fill="none" id="canvas_background" height="402" width="582" y="-1" x="-1"/>
 </g>
 <g>
  <title>Layer 1</title>
  <path class="RMOiKPnL_0" d="m-3,135c0,0 564,183 564,183c0,0 333,93 333,93c0,0 246,66 246,66c0,0 168,51 168,51c0,0 291,111 291,111c0,0 312,99 312,99c0,0 153,57 153,57c0,0 309,111 309,111c0,0 387,144 387,144c0,0 66,21 66,21m-66,-36c0,0 -93,168 -93,168c0,0 -195,243 -195,243c0,0 -39,78 -39,78m-351,-6c0,0 120,-252 120,-252c0,0 171,-357 171,-357c0,0 135,-258 135,-258c0,0 150,-312 150,-312c0,0 99,-204 99,-204c0,0 48,-90 48,-90c0,0 -18,-42 -18,-42m-744,1464c0,0 51,24 51,24m-60,-309c0,0 171,84 171,84m621,-1092c0,0 -63,-39 -63,-39m-81,162c0,0 153,87 153,87c0,0 -6,39 -6,39c0,0 -168,-81 -168,-81m18,-45m-651,492c0,0 -207,741 -207,741c0,0 -168,-81 -168,-81c0,0 63,-144 63,-144c0,0 54,-174 54,-174c0,0 87,-246 87,-246c0,0 -294,-93 -294,-93c0,0 45,-141 45,-141c0,0 24,-81 24,-81c0,0 108,48 108,48c0,0 99,-270 99,-270c0,0 -15,-24 -15,-24c0,0 -27,9 -27,9c0,0 -78,237 -78,237c0,0 27,42 27,42m912,-270c0,0 -354,-141 -354,-141c0,0 -21,-126 -21,-126c0,0 -141,-21 -141,-21c0,0 -234,711 -234,711c0,0 -51,120 -51,120m405,-687c0,0 -201,597 -201,597m246,-795c0,0 -24,72 -24,72m-936,1452c0,0 42,-183 42,-183c0,0 90,-288 90,-288c0,0 84,-261 84,-261m87,654c0,0 -267,-102 -267,-102c0,0 -408,-72 -408,-72c0,0 -51,231 -51,231c0,0 -255,-21 -255,-21c0,0 -9,45 -9,45m987,-6c0,0 6,-72 6,-72m-171,-396c0,0 -297,-69 -297,-69c0,0 -138,-42 -138,-42c0,0 -75,339 -75,339c0,0 -381,0 -381,0c0,0 -33,90 -33,90c0,0 -27,150 -27,150m30,-147c0,0 -219,24 -219,24c0,0 -333,-45 -333,-45c0,0 -6,150 -6,150c0,0 207,30 207,30m468,-1533c0,0 -123,318 -123,318c0,0 -111,336 -111,336c0,0 3,48 3,48c0,0 -3,138 -3,138c0,0 6,318 6,318c0,0 0,102 0,102c0,0 0,39 0,39c0,0 123,42 123,42m453,-1332c0,0 -132,402 -132,402c0,0 -144,456 -144,456c0,0 -159,414 -159,414m660,-1278c0,0 -111,474 -111,474c0,0 -93,468 -93,468c0,0 -297,-78 -297,-78m664,-717c0,0 -106,381 -106,381c0,0 -123,456 -123,456m-411,-198c0,0 -324,-84 -324,-84m-150,99c0,0 144,39 144,39m-270,270c0,0 273,48 273,48m-267,-777c0,0 117,21 117,21c0,0 27,33 27,33c0,0 -39,159 -39,159c0,0 -75,-33 -75,-33c0,0 -135,339 -135,339c0,0 -69,267 -69,267c0,0 444,87 444,87m-450,-801c0,0 213,111 213,111m231,87c0,0 -165,-57 -165,-57m1167,591c0,0 270,117 270,117m-237,-252c0,0 291,81 291,81m-843,372c0,0 96,3 96,3c0,0 33,-168 33,-168m84,186c0,0 -117,-18 -117,-18m1140,-1020c0,0 348,156 348,156c0,0 318,189 318,189m-3,63c0,0 -72,159 -72,159m-813,-195c0,0 -63,-24 -63,-24m-1878,39c0,0 78,30 78,30m2088,-906c0,0 -24,60 -24,60" stroke="black" fill="none" id="Unnamed"/>
  <ellipse stroke="#000" ry="19.000044" rx="19.000044" id="svg_1" cy="725.999723" cx="1497.000525" stroke-width="1.5" fill="#8e8e8e"/>
 </g>
</svg>